<?xml version="1.0" encoding="UTF-8" standalone="no"?>
<!-- Created with Inkscape (http://www.inkscape.org/) -->

<svg
   xmlns:dc="http://purl.org/dc/elements/1.1/"
   xmlns:cc="http://creativecommons.org/ns#"
   xmlns:rdf="http://www.w3.org/1999/02/22-rdf-syntax-ns#"
   xmlns:svg="http://www.w3.org/2000/svg"
   xmlns="http://www.w3.org/2000/svg"
   xmlns:sodipodi="http://sodipodi.sourceforge.net/DTD/sodipodi-0.dtd"
   xmlns:inkscape="http://www.inkscape.org/namespaces/inkscape"
   width="744.09448819"
   height="1052.3622047"
   id="svg2"
   version="1.1"
   inkscape:version="0.48.2 r9819"
   sodipodi:docname="construction_of_the_crescent_moon.svg"
   inkscape:export-filename="C:\Documents and Settings\rjl\My Documents\thesis\github\Unicode\graphics\construction_of_the_crescent_moon.png"
   inkscape:export-xdpi="83.5"
   inkscape:export-ydpi="83.5">
  <defs
     id="defs4">
    <marker
       style="overflow:visible"
       id="DistanceEnd"
       refX="0.0"
       refY="0.0"
       orient="auto"
       inkscape:stockid="DistanceEnd">
      <g
         id="g4032">
        <path
           style="fill:none;stroke:#ffffff;stroke-width:1.15;stroke-linecap:square"
           d="M 0,0 L -2,0"
           id="path2316" />
        <path
           style="fill:#000000;fill-rule:evenodd;stroke:none"
           d="M 0,0 L -13,4 L -9,0 -13,-4 L 0,0 z "
           id="path2312" />
        <path
           style="fill:none;stroke:#000000;stroke-width:1;stroke-linecap:square"
           d="M 0,-4 L 0,40"
           id="path2314" />
      </g>
    </marker>
    <marker
       style="overflow:visible"
       id="DistanceStart"
       refX="0.0"
       refY="0.0"
       orient="auto"
       inkscape:stockid="DistanceStart">
      <g
         id="g2300">
        <path
           style="fill:none;stroke:#ffffff;stroke-width:1.15;stroke-linecap:square"
           d="M 0,0 L 2,0"
           id="path2306" />
        <path
           style="fill:#000000;fill-rule:evenodd;stroke:none"
           d="M 0,0 L 13,4 L 9,0 13,-4 L 0,0 z "
           id="path2302" />
        <path
           style="fill:none;stroke:#000000;stroke-width:1;stroke-linecap:square"
           d="M 0,-4 L 0,40"
           id="path2304" />
      </g>
    </marker>
  </defs>
  <sodipodi:namedview
     id="base"
     pagecolor="#ffffff"
     bordercolor="#666666"
     borderopacity="1.0"
     inkscape:pageopacity="0.0"
     inkscape:pageshadow="2"
     inkscape:zoom="1.24"
     inkscape:cx="228.9437"
     inkscape:cy="871.44828"
     inkscape:document-units="px"
     inkscape:current-layer="layer1"
     showgrid="false"
     inkscape:window-width="1024"
     inkscape:window-height="719"
     inkscape:window-x="-4"
     inkscape:window-y="-4"
     inkscape:window-maximized="1" />
  <metadata
     id="metadata7">
    <rdf:RDF>
      <cc:Work
         rdf:about="">
        <dc:format>image/svg+xml</dc:format>
        <dc:type
           rdf:resource="http://purl.org/dc/dcmitype/StillImage" />
        <dc:title></dc:title>
      </cc:Work>
    </rdf:RDF>
  </metadata>
  <g
     inkscape:label="Layer 1"
     inkscape:groupmode="layer"
     id="layer1">
    <path
       style="opacity:0.33000004;fill:none;stroke:#000000;stroke-width:1px;stroke-linecap:butt;stroke-linejoin:miter;stroke-opacity:1"
       d="M 248.74487,32.080889 248.31312,382.08062"
       id="path6968"
       inkscape:connector-curvature="0" />
    <path
       style="opacity:0.33000004;fill:none;stroke:#000000;stroke-width:1px;stroke-linecap:butt;stroke-linejoin:miter;stroke-opacity:1"
       d="m 38.310026,200.8117 484.999634,0.59829"
       id="path6970"
       inkscape:connector-curvature="0" />
    <path
       sodipodi:type="arc"
       style="fill:none;stroke:#000000;stroke-width:1;stroke-linecap:butt;stroke-linejoin:miter;stroke-miterlimit:4;stroke-opacity:0.12941176;stroke-dasharray:none;stroke-dashoffset:0"
       id="path3005"
       sodipodi:cx="200"
       sodipodi:cy="200"
       sodipodi:rx="120"
       sodipodi:ry="120"
       d="m 320,200 a 120,120 0 1 1 -6.1e-4,-0.38224"
       sodipodi:start="0"
       sodipodi:end="6.28"
       sodipodi:open="true"
       transform="matrix(0.91738654,-0.3979974,0.3979974,0.91738654,-59.473009,117.26462)" />
    <path
       sodipodi:type="arc"
       style="fill:none;stroke:#000000;stroke-width:1;stroke-linecap:butt;stroke-linejoin:miter;stroke-miterlimit:4;stroke-opacity:0.12941176;stroke-dasharray:none;stroke-dashoffset:0"
       id="path3005-7"
       sodipodi:cx="300"
       sodipodi:cy="200"
       sodipodi:rx="120"
       sodipodi:ry="120"
       d="m 420,200 a 120,120 0 1 1 -6.1e-4,-0.38224"
       sodipodi:start="0"
       sodipodi:end="6.28"
       sodipodi:open="true"
       transform="matrix(0.91738654,-0.3979974,0.3979974,0.91738654,-59.473009,117.26462)" />
    <path
       style="fill:none;stroke:#000000;stroke-width:1px;stroke-linecap:butt;stroke-linejoin:miter;stroke-opacity:1"
       d="M 65.995798,280.84206 C 478.81974,101.74323 478.81974,101.74323 478.81974,101.74323"
       id="path3029"
       inkscape:connector-curvature="0" />
    <path
       style="fill:none;stroke:#000000;stroke-width:1.23254645px;stroke-linecap:butt;stroke-linejoin:miter;stroke-opacity:1"
       d="M 174.56719,29.073451 C 321.95968,367.76655 321.95968,367.76655 321.95968,367.76655"
       id="path3031"
       inkscape:connector-curvature="0" />
    <path
       sodipodi:type="arc"
       style="fill:none;stroke:#000000;stroke-width:1;stroke-linecap:butt;stroke-linejoin:miter;stroke-miterlimit:4;stroke-opacity:1;stroke-dasharray:none;stroke-dashoffset:0"
       id="path3805"
       sodipodi:cx="250"
       sodipodi:cy="200"
       sodipodi:rx="60"
       sodipodi:ry="60"
       d="m 310,200 a 60,60 0 1 1 -3e-4,-0.19112"
       sodipodi:start="0"
       sodipodi:end="6.28"
       sodipodi:open="true"
       transform="matrix(0.91738654,-0.3979974,0.3979974,0.91738654,-59.473009,117.26462)" />
    <path
       sodipodi:type="arc"
       style="fill:none;stroke:#000000;stroke-width:1;stroke-linecap:butt;stroke-linejoin:miter;stroke-miterlimit:4;stroke-opacity:0.12941176;stroke-dasharray:none;stroke-dashoffset:0"
       id="path3809"
       sodipodi:cx="250"
       sodipodi:cy="200"
       sodipodi:rx="35"
       sodipodi:ry="35"
       d="m 285,200 a 35,35 0 1 1 -1.8e-4,-0.11149"
       sodipodi:start="0"
       sodipodi:end="6.28"
       sodipodi:open="true"
       transform="matrix(0.91738654,-0.3979974,0.3979974,0.91738654,-59.473009,117.26462)" />
    <path
       sodipodi:type="arc"
       style="fill:none;stroke:#000000;stroke-width:1;stroke-linecap:butt;stroke-linejoin:miter;stroke-miterlimit:4;stroke-opacity:0.12941176;stroke-dasharray:none;stroke-dashoffset:0"
       id="path3847"
       sodipodi:cx="190"
       sodipodi:cy="200"
       sodipodi:rx="35"
       sodipodi:ry="35"
       d="m 225,200 a 35,35 0 1 1 -1.8e-4,-0.11149"
       sodipodi:start="0"
       sodipodi:end="6.28"
       sodipodi:open="true"
       transform="matrix(0.91738654,-0.3979974,0.3979974,0.91738654,-59.473009,117.26462)" />
    <path
       style="fill:none;stroke:#000000;stroke-width:1px;stroke-linecap:butt;stroke-linejoin:miter;stroke-opacity:0.12941176"
       d="m 178.1718,112.26998 99.49935,229.34664"
       id="path3849"
       inkscape:connector-curvature="0" />
    <path
       sodipodi:type="arc"
       style="fill:none;stroke:#000000;stroke-width:1;stroke-linecap:butt;stroke-linejoin:miter;stroke-miterlimit:4;stroke-opacity:1;stroke-dasharray:none;stroke-dashoffset:0"
       id="path3857"
       sodipodi:cx="295"
       sodipodi:cy="200"
       sodipodi:rx="75"
       sodipodi:ry="75"
       d="m 370,200 a 75,75 0 1 1 -3.8e-4,-0.2389"
       sodipodi:start="0"
       sodipodi:end="6.28"
       sodipodi:open="true"
       transform="matrix(0.91738654,-0.3979974,0.3979974,0.91738654,-59.473009,117.26462)" />
    <path
       sodipodi:type="arc"
       style="fill:none;stroke:#000000;stroke-width:1;stroke-linecap:butt;stroke-linejoin:miter;stroke-miterlimit:4;stroke-opacity:0.12941176;stroke-dasharray:none;stroke-dashoffset:0"
       id="path3881"
       sodipodi:cx="235"
       sodipodi:cy="200"
       sodipodi:rx="15"
       sodipodi:ry="15"
       d="m 250,200 a 15,15 0 1 1 -8e-5,-0.0478"
       sodipodi:start="0"
       sodipodi:end="6.28"
       sodipodi:open="true"
       transform="matrix(0.91738654,-0.3979974,0.3979974,0.91738654,-59.473009,117.26462)" />
    <path
       sodipodi:type="arc"
       style="fill:none;stroke:#000000;stroke-width:1;stroke-linecap:butt;stroke-linejoin:miter;stroke-miterlimit:4;stroke-opacity:0.12941176;stroke-dasharray:none;stroke-dashoffset:0"
       id="path3901"
       sodipodi:cx="265"
       sodipodi:cy="200"
       sodipodi:rx="15"
       sodipodi:ry="15"
       d="m 280,200 a 15,15 0 1 1 -8e-5,-0.0478"
       sodipodi:start="0"
       sodipodi:end="6.28"
       sodipodi:open="true"
       transform="matrix(0.91738654,-0.3979974,0.3979974,0.91738654,-59.473009,117.26462)" />
    <path
       sodipodi:type="arc"
       style="fill:none;stroke:#000000;stroke-width:1;stroke-linecap:butt;stroke-linejoin:miter;stroke-miterlimit:4;stroke-opacity:0.12941176;stroke-dasharray:none;stroke-dashoffset:0"
       id="path3903"
       sodipodi:cx="295"
       sodipodi:cy="200"
       sodipodi:rx="15"
       sodipodi:ry="15"
       d="m 310,200 a 15,15 0 1 1 -8e-5,-0.0478"
       sodipodi:start="0"
       sodipodi:end="6.28"
       sodipodi:open="true"
       transform="matrix(0.91738654,-0.3979974,0.3979974,0.91738654,-59.473009,117.26462)" />
    <path
       style="fill:none;stroke:#000000;stroke-width:1px;stroke-linecap:butt;stroke-linejoin:miter;stroke-opacity:0.12941176"
       d="m 284.17858,180.73575 13.15384,5.19389"
       id="path3905"
       inkscape:connector-curvature="0" />
    <path
       style="fill:none;stroke:#000000;stroke-width:1px;stroke-linecap:butt;stroke-linejoin:miter;stroke-opacity:0.12941176"
       d="m 288.15855,189.90961 5.1939,-13.15383"
       id="path3907"
       inkscape:connector-curvature="0" />
    <g
       id="g6531"
       transform="matrix(0.91738654,-0.3979974,0.3979974,0.91738654,-150.21642,-91.899511)">
      <path
         inkscape:connector-curvature="0"
         id="path3913"
         d="m 250,350 -60,0"
         style="fill:none;stroke:#000000;stroke-width:1px;stroke-linecap:butt;stroke-linejoin:miter;stroke-opacity:1;marker-start:url(#DistanceStart);marker-end:url(#DistanceEnd)" />
      <text
         sodipodi:linespacing="125%"
         id="text3909"
         y="363.33789"
         x="213.19531"
         style="font-size:20px;font-style:normal;font-variant:normal;font-weight:normal;font-stretch:normal;line-height:125%;letter-spacing:0px;word-spacing:0px;fill:#000000;fill-opacity:1;stroke:none;font-family:Palatino Linotype;-inkscape-font-specification:Palatino Linotype"
         xml:space="preserve"><tspan
           style="font-size:20px;font-style:italic;font-family:Times New Roman;-inkscape-font-specification:Times New Roman"
           y="363.33789"
           x="213.19531"
           id="tspan3911"
           sodipodi:role="line">r</tspan></text>
    </g>
    <g
       id="g5574"
       transform="matrix(0.91738654,-0.3979974,0.3979974,0.91738654,-157.38037,-108.41247)">
      <path
         inkscape:connector-curvature="0"
         id="path3915"
         d="m 250,345 45,0"
         style="fill:none;stroke:#000000;stroke-width:1px;stroke-linecap:butt;stroke-linejoin:miter;stroke-opacity:1;marker-start:url(#DistanceStart);marker-end:url(#DistanceEnd)" />
      <text
         sodipodi:linespacing="125%"
         id="text3909-4"
         y="364.76584"
         x="255.85449"
         style="font-size:32px;font-style:normal;font-variant:normal;font-weight:normal;font-stretch:normal;line-height:125%;letter-spacing:0px;word-spacing:0px;fill:#000000;fill-opacity:1;stroke:none;font-family:Palatino Linotype;-inkscape-font-specification:Palatino Linotype"
         xml:space="preserve"><tspan
           style="font-size:20px;font-style:italic;font-family:Times New Roman;-inkscape-font-specification:Times New Roman"
           y="364.76584"
           x="255.85449"
           id="tspan3911-8"
           sodipodi:role="line">3<tspan
   id="tspan3940"
   style="font-style:normal"><tspan
   id="tspan3942"
   style="font-style:italic">r</tspan>/4</tspan></tspan></text>
    </g>
    <g
       id="g4618"
       transform="matrix(0.91738654,-0.3979974,0.3979974,0.91738654,-42.408681,-31.845435)">
      <path
         inkscape:connector-curvature="0"
         id="path3948"
         d="m 295,414 -75,0"
         style="fill:none;stroke:#000000;stroke-width:1px;stroke-linecap:butt;stroke-linejoin:miter;stroke-opacity:1;marker-start:url(#DistanceStart);marker-end:url(#DistanceEnd)" />
      <text
         sodipodi:linespacing="125%"
         id="text3909-8"
         y="432.38672"
         x="240.70801"
         style="font-size:20px;font-style:normal;font-variant:normal;font-weight:normal;font-stretch:normal;line-height:125%;letter-spacing:0px;word-spacing:0px;fill:#000000;fill-opacity:1;stroke:none;font-family:Palatino Linotype;-inkscape-font-specification:Palatino Linotype"
         xml:space="preserve"><tspan
           style="font-size:20px;font-style:normal;font-family:Times New Roman;-inkscape-font-specification:Times New Roman"
           y="432.38672"
           x="240.70801"
           id="tspan3911-2"
           sodipodi:role="line">5<tspan
   id="tspan3971"
   style="font-style:italic">r</tspan>/4</tspan></text>
    </g>
    <path
       style="fill:#000000;fill-opacity:1;fill-rule:evenodd;stroke:#000000;stroke-width:0.66666669;stroke-linecap:butt;stroke-linejoin:miter;stroke-miterlimit:4;stroke-opacity:1;stroke-dasharray:none;stroke-dashoffset:0"
       d="m 208.1349,180.01786 -6.23226,-14.36539 3.47062,-3.7934 c 4.11291,-4.49541 9.91812,-9.20713 14.75822,-11.97833 l 3.49266,-1.99972 -2.17612,4.77847 c -4.42648,9.71993 -7.25425,25.83871 -6.29458,35.88015 0.18973,1.98528 0.0904,4.11225 -0.22065,4.7266 -0.49052,0.96867 -1.39323,-0.79061 -6.79789,-13.24838 z"
       id="path6538"
       inkscape:connector-curvature="0" />
    <path
       style="fill:#000000;fill-opacity:1;fill-rule:evenodd;stroke:#000000;stroke-width:0.66666669;stroke-linecap:butt;stroke-linejoin:miter;stroke-miterlimit:4;stroke-opacity:1;stroke-dasharray:none;stroke-dashoffset:0"
       d="m 210.32532,193.44204 c -3.12606,-1.82569 -9.5552,-3.50351 -14.5627,-3.80043 -3.48725,-0.20679 -3.91745,-0.40123 -3.80885,-1.72154 0.23503,-2.85765 4.0143,-12.37226 6.57275,-16.54745 l 2.57867,-4.2082 5.9869,13.79985 c 3.2928,7.58993 5.91482,13.82214 5.8267,13.84936 -0.0881,0.0272 -1.25517,-0.59 -2.59347,-1.37159 z"
       id="path6540"
       inkscape:connector-curvature="0" />
    <path
       style="fill:#000000;fill-opacity:1;fill-rule:evenodd;stroke:#000000;stroke-width:0.66666669;stroke-linecap:butt;stroke-linejoin:miter;stroke-miterlimit:4;stroke-opacity:1;stroke-dasharray:none;stroke-dashoffset:0"
       d="m 193.32307,219.14078 c -2.15217,-6.21046 -3.02605,-12.26903 -2.78674,-19.32034 0.32166,-9.47744 0.0985,-9.14901 5.97518,-8.79389 4.88391,0.29513 12.44534,2.6105 15.84002,4.85035 1.65727,1.0935 1.72224,1.30713 1.64048,5.39439 -0.0468,2.34069 0.43572,6.26909 1.0723,8.72978 l 1.15745,4.47398 -10.65576,4.62287 -10.65576,4.62288 -1.58717,-4.58002 z"
       id="path6542"
       inkscape:connector-curvature="0" />
    <path
       style="fill:#000000;fill-opacity:1;fill-rule:evenodd;stroke:#000000;stroke-width:0.66666669;stroke-linecap:butt;stroke-linejoin:miter;stroke-miterlimit:4;stroke-opacity:1;stroke-dasharray:none;stroke-dashoffset:0"
       d="m 215.96192,249.95536 c -6.98571,-4.78857 -14.28594,-12.87439 -17.86589,-19.78846 l -2.38802,-4.6121 10.65487,-4.62248 10.65487,-4.6225 2.4532,3.8654 c 1.34925,2.12597 3.95499,5.23567 5.79052,6.91043 l 3.33733,3.04502 -1.23441,4.17142 c -1.56528,5.28951 -3.44445,8.77063 -7.09675,13.14651 l -2.89778,3.47188 -1.40794,-0.96512 z"
       id="path6544"
       inkscape:connector-curvature="0" />
    <path
       style="fill:#000000;fill-opacity:1;fill-rule:evenodd;stroke:#000000;stroke-width:0.66666669;stroke-linecap:butt;stroke-linejoin:miter;stroke-miterlimit:4;stroke-opacity:1;stroke-dasharray:none;stroke-dashoffset:0"
       d="m 235.99668,258.71187 c -4.52821,-1.04137 -16.64507,-5.93795 -17.0599,-6.89415 -0.10932,-0.25199 1.21851,-2.17807 2.95076,-4.28017 1.8379,-2.2303 4.07831,-6.13465 5.37976,-9.37527 l 2.23025,-5.55327 5.8533,13.49188 c 3.21932,7.42055 5.74596,13.53846 5.61479,13.59537 -0.13119,0.0569 -2.36722,-0.38606 -4.96896,-0.98439 z"
       id="path6546"
       inkscape:connector-curvature="0" />
    <path
       style="fill:#000000;fill-opacity:1;fill-rule:evenodd;stroke:#000000;stroke-width:0.66666669;stroke-linecap:butt;stroke-linejoin:miter;stroke-miterlimit:4;stroke-opacity:1;stroke-dasharray:none;stroke-dashoffset:0"
       d="m 264.03683,258.62058 c -4.57603,1.1066 -10.33467,1.70461 -15.45666,1.60513 l -5.69602,-0.11062 -6.24526,-14.44862 c -5.54783,-12.83502 -6.08753,-14.35958 -4.83295,-13.65139 0.77677,0.43847 2.59367,2.022 4.03755,3.51894 7.34245,7.61231 16.23885,13.61308 26.59155,17.93647 l 7.46803,3.11873 -2.111,0.81686 c -1.16104,0.44931 -2.85091,0.9958 -3.75525,1.21449 z"
       id="path6548"
       inkscape:connector-curvature="0" />
    <path
       style="fill:#000000;fill-opacity:1;fill-rule:evenodd;stroke:#000000;stroke-width:0.66666669;stroke-linecap:butt;stroke-linejoin:miter;stroke-miterlimit:4;stroke-opacity:1;stroke-dasharray:none;stroke-dashoffset:0"
       d="m 216.97541,212.12065 c -0.8577,-1.977 -2.04713,-9.06676 -1.82783,-10.89508 0.10156,-0.8468 1.028,0.76173 2.88779,5.01396 l 2.73827,6.26074 -1.52898,0.66333 c -1.26554,0.54904 -1.65651,0.36935 -2.26922,-1.04296 z"
       id="path6550"
       inkscape:connector-curvature="0" />
    <path
       style="fill:#000000;fill-opacity:1;fill-rule:evenodd;stroke:#000000;stroke-width:0.1;stroke-linecap:butt;stroke-linejoin:miter;stroke-miterlimit:4;stroke-opacity:1;stroke-dasharray:none;stroke-dashoffset:0"
       d="m 226.91024,227.31757 c -3.5549,-3.09139 -6.87563,-7.45847 -8.47644,-11.14732 l -0.32843,-0.75681 1.78891,-0.7761 1.7889,-0.77609 3.06458,7.06387 c 1.68552,3.88514 3.04504,7.07236 3.02119,7.08271 -0.0238,0.0103 -0.41029,-0.30027 -0.85874,-0.69025 z"
       id="path6576"
       inkscape:connector-curvature="0" />
    <path
       style="fill:none;stroke:#000000;stroke-width:1px;stroke-linecap:butt;stroke-linejoin:miter;stroke-opacity:1;marker-start:url(#DistanceStart);marker-end:url(#DistanceEnd)"
       d="m 252.59731,283.82126 27.5216,-11.93992"
       id="path6580"
       inkscape:connector-curvature="0" />
    <text
       xml:space="preserve"
       style="font-size:32px;font-style:normal;font-variant:normal;font-weight:normal;font-stretch:normal;line-height:125%;letter-spacing:0px;word-spacing:0px;fill:#000000;fill-opacity:1;stroke:none;font-family:Palatino Linotype;-inkscape-font-specification:Palatino Linotype"
       x="122.31905"
       y="383.29361"
       id="text6582"
       sodipodi:linespacing="125%"
       transform="matrix(0.91738654,-0.3979974,0.3979974,0.91738654,0,0)"><tspan
         sodipodi:role="line"
         id="tspan6584"
         x="122.31905"
         y="383.29361"
         style="font-size:20px;font-family:Times New Roman;-inkscape-font-specification:Times New Roman"><tspan
   style="font-style:italic"
   id="tspan6586">r</tspan>/2</tspan></text>
    <path
       sodipodi:type="arc"
       style="fill:none;stroke:#000000;stroke-width:1;stroke-linecap:butt;stroke-linejoin:miter;stroke-miterlimit:4;stroke-opacity:1;stroke-dasharray:none;stroke-dashoffset:0"
       id="path6986"
       sodipodi:cx="250"
       sodipodi:cy="200"
       sodipodi:rx="150"
       sodipodi:ry="150"
       d="M 189.39767,62.787182 A 150,150 0 0 1 247.20454,50.026051"
       sodipodi:start="4.2964866"
       sodipodi:end="4.6937515"
       sodipodi:open="true" />
    <text
       xml:space="preserve"
       style="font-size:32px;font-style:normal;font-variant:normal;font-weight:normal;font-stretch:normal;line-height:125%;letter-spacing:0px;word-spacing:0px;fill:#000000;fill-opacity:1;stroke:none;font-family:Palatino Linotype;-inkscape-font-specification:Palatino Linotype"
       x="178.14069"
       y="91.24588"
       id="text6988"
       sodipodi:linespacing="125%"
       transform="matrix(0.97757429,-0.21059083,0.21059083,0.97757429,0,0)"><tspan
         sodipodi:role="line"
         id="tspan6990"
         x="178.14069"
         y="91.24588"
         style="font-size:20px;font-family:Times New Roman;-inkscape-font-specification:Times New Roman">23.44°</tspan></text>
  </g>
</svg>
