<?xml version="1.0" encoding="UTF-8" standalone="no"?>
<!-- Created with Inkscape (http://www.inkscape.org/) -->

<svg
   xmlns:dc="http://purl.org/dc/elements/1.1/"
   xmlns:cc="http://creativecommons.org/ns#"
   xmlns:rdf="http://www.w3.org/1999/02/22-rdf-syntax-ns#"
   xmlns:svg="http://www.w3.org/2000/svg"
   xmlns="http://www.w3.org/2000/svg"
   xmlns:sodipodi="http://sodipodi.sourceforge.net/DTD/sodipodi-0.dtd"
   xmlns:inkscape="http://www.inkscape.org/namespaces/inkscape"
   width="744.09448819"
   height="1052.3622047"
   id="svg2"
   version="1.1"
   inkscape:version="0.48.2 r9819"
   sodipodi:docname="construction_of_the_crescent_moon.svg"
   inkscape:export-filename="C:\Documents and Settings\rjl\My Documents\thesis\github\Unicode\graphics\construction_of_the_crescent_moon.png"
   inkscape:export-xdpi="111.33964"
   inkscape:export-ydpi="111.33964">
  <defs
     id="defs4">
    <marker
       style="overflow:visible"
       id="DistanceEnd"
       refX="0.0"
       refY="0.0"
       orient="auto"
       inkscape:stockid="DistanceEnd">
      <g
         id="g4032">
        <path
           style="fill:none;stroke:#ffffff;stroke-width:1.15;stroke-linecap:square"
           d="M 0,0 L -2,0"
           id="path2316" />
        <path
           style="fill:#000000;fill-rule:evenodd;stroke:none"
           d="M 0,0 L -13,4 L -9,0 -13,-4 L 0,0 z "
           id="path2312" />
        <path
           style="fill:none;stroke:#000000;stroke-width:1;stroke-linecap:square"
           d="M 0,-4 L 0,40"
           id="path2314" />
      </g>
    </marker>
    <marker
       style="overflow:visible"
       id="DistanceStart"
       refX="0.0"
       refY="0.0"
       orient="auto"
       inkscape:stockid="DistanceStart">
      <g
         id="g2300">
        <path
           style="fill:none;stroke:#ffffff;stroke-width:1.15;stroke-linecap:square"
           d="M 0,0 L 2,0"
           id="path2306" />
        <path
           style="fill:#000000;fill-rule:evenodd;stroke:none"
           d="M 0,0 L 13,4 L 9,0 13,-4 L 0,0 z "
           id="path2302" />
        <path
           style="fill:none;stroke:#000000;stroke-width:1;stroke-linecap:square"
           d="M 0,-4 L 0,40"
           id="path2304" />
      </g>
    </marker>
  </defs>
  <sodipodi:namedview
     id="base"
     pagecolor="#ffffff"
     bordercolor="#666666"
     borderopacity="1.0"
     inkscape:pageopacity="0.0"
     inkscape:pageshadow="2"
     inkscape:zoom="1.09"
     inkscape:cx="253.85351"
     inkscape:cy="832.08707"
     inkscape:document-units="px"
     inkscape:current-layer="layer1"
     showgrid="false"
     inkscape:window-width="1024"
     inkscape:window-height="719"
     inkscape:window-x="-4"
     inkscape:window-y="-4"
     inkscape:window-maximized="1" />
  <metadata
     id="metadata7">
    <rdf:RDF>
      <cc:Work
         rdf:about="">
        <dc:format>image/svg+xml</dc:format>
        <dc:type
           rdf:resource="http://purl.org/dc/dcmitype/StillImage" />
        <dc:title />
      </cc:Work>
    </rdf:RDF>
  </metadata>
  <g
     inkscape:label="Layer 1"
     inkscape:groupmode="layer"
     id="layer1">
    <path
       style="opacity:0.33000004;fill:none;stroke:#000000;stroke-width:1.02864885px;stroke-linecap:butt;stroke-linejoin:miter;stroke-opacity:1"
       d="M 248.74487,32.080889 248.31312,402.42211"
       id="path6968"
       inkscape:connector-curvature="0" />
    <path
       style="opacity:0.33000004;fill:none;stroke:#000000;stroke-width:1px;stroke-linecap:butt;stroke-linejoin:miter;stroke-opacity:1"
       d="m 38.310026,200.8117 484.999634,0.59829"
       id="path6970"
       inkscape:connector-curvature="0" />
    <path
       style="fill:none;stroke:#000000;stroke-width:1px;stroke-linecap:butt;stroke-linejoin:miter;stroke-opacity:1"
       d="M 65.432418,280.56037 C 478.25636,101.46154 478.25636,101.46154 478.25636,101.46154"
       id="path3029"
       inkscape:connector-curvature="0" />
    <path
       style="fill:none;stroke:#000000;stroke-width:1.23254645px;stroke-linecap:butt;stroke-linejoin:miter;stroke-opacity:1"
       d="M 174.00381,28.932606 C 321.3963,367.6257 321.3963,367.6257 321.3963,367.6257"
       id="path3031"
       inkscape:connector-curvature="0" />
    <path
       style="fill:none;stroke:#000000;stroke-width:1px;stroke-linecap:butt;stroke-linejoin:miter;stroke-opacity:1;opacity:0.333"
       d="m 178.1718,112.26998 99.49935,229.34664"
       id="path3849"
       inkscape:connector-curvature="0" />
    <path
       sodipodi:type="arc"
       style="fill:none;stroke:#000000;stroke-width:1;stroke-linecap:butt;stroke-linejoin:miter;stroke-miterlimit:4;stroke-opacity:1;stroke-dasharray:none;stroke-dashoffset:0"
       id="path3805"
       sodipodi:cx="250"
       sodipodi:cy="200"
       sodipodi:rx="60"
       sodipodi:ry="60"
       d="m 310,200 a 60,60 0 1 1 -3e-4,-0.19112"
       sodipodi:start="0"
       sodipodi:end="6.28"
       sodipodi:open="true"
       transform="matrix(0.91738654,-0.3979974,0.3979974,0.91738654,-59.473009,117.26462)" />
    <path
       sodipodi:type="arc"
       style="fill:none;stroke:#000000;stroke-width:1;stroke-linecap:butt;stroke-linejoin:miter;stroke-miterlimit:4;stroke-opacity:1;stroke-dasharray:none;stroke-dashoffset:0;opacity:0.333"
       id="path3809"
       sodipodi:cx="250"
       sodipodi:cy="200"
       sodipodi:rx="35"
       sodipodi:ry="35"
       d="m 240.54526,233.69878 a 35,35 0 1 1 0.0284,0.008"
       sodipodi:start="1.8443299"
       sodipodi:end="8.1266721"
       sodipodi:open="true"
       transform="matrix(0.91738654,-0.3979974,0.3979974,0.91738654,-59.473009,117.26462)" />
    <path
       sodipodi:type="arc"
       style="fill:none;stroke:#000000;stroke-width:1;stroke-linecap:butt;stroke-linejoin:miter;stroke-miterlimit:4;stroke-opacity:1;stroke-dasharray:none;stroke-dashoffset:0"
       id="path3857"
       sodipodi:cx="295"
       sodipodi:cy="200"
       sodipodi:rx="75"
       sodipodi:ry="75"
       d="m 370,200 a 75,75 0 1 1 -3.8e-4,-0.2389"
       sodipodi:start="0"
       sodipodi:end="6.28"
       sodipodi:open="true"
       transform="matrix(0.91738654,-0.3979974,0.3979974,0.91738654,-59.473009,117.26462)" />
    <path
       sodipodi:type="arc"
       style="fill:none;stroke:#000000;stroke-width:1;stroke-linecap:butt;stroke-linejoin:miter;stroke-miterlimit:4;stroke-opacity:1;stroke-dasharray:none;stroke-dashoffset:0;opacity:0.333"
       id="path3881"
       sodipodi:cx="235"
       sodipodi:cy="200"
       sodipodi:rx="15"
       sodipodi:ry="15"
       d="m 250,200 a 15,15 0 1 1 -8e-5,-0.0478"
       sodipodi:start="0"
       sodipodi:end="6.28"
       sodipodi:open="true"
       transform="matrix(0.91738654,-0.3979974,0.3979974,0.91738654,-59.473009,117.26462)" />
    <path
       sodipodi:type="arc"
       style="fill:none;stroke:#000000;stroke-width:1;stroke-linecap:butt;stroke-linejoin:miter;stroke-miterlimit:4;stroke-opacity:1;stroke-dasharray:none;stroke-dashoffset:0;opacity:0.333"
       id="path3901"
       sodipodi:cx="265"
       sodipodi:cy="200"
       sodipodi:rx="15"
       sodipodi:ry="15"
       d="m 280,200 a 15,15 0 1 1 -8e-5,-0.0478"
       sodipodi:start="0"
       sodipodi:end="6.28"
       sodipodi:open="true"
       transform="matrix(0.91738654,-0.3979974,0.3979974,0.91738654,-59.473009,117.26462)" />
    <path
       sodipodi:type="arc"
       style="fill:none;stroke:#000000;stroke-width:1;stroke-linecap:butt;stroke-linejoin:miter;stroke-miterlimit:4;stroke-opacity:1;stroke-dasharray:none;stroke-dashoffset:0;opacity:0.333"
       id="path3903"
       sodipodi:cx="295"
       sodipodi:cy="200"
       sodipodi:rx="15"
       sodipodi:ry="15"
       d="m 310,200 a 15,15 0 1 1 -8e-5,-0.0478"
       sodipodi:start="0"
       sodipodi:end="6.28"
       sodipodi:open="true"
       transform="matrix(0.91738654,-0.3979974,0.3979974,0.91738654,-59.473009,117.26462)" />
    <path
       style="fill:none;stroke:#000000;stroke-width:1px;stroke-linecap:butt;stroke-linejoin:miter;stroke-opacity:1"
       d="m 284.17858,180.73575 13.15384,5.19389"
       id="path3905"
       inkscape:connector-curvature="0" />
    <path
       style="fill:none;stroke:#000000;stroke-width:1px;stroke-linecap:butt;stroke-linejoin:miter;stroke-opacity:1"
       d="m 288.15855,189.90961 5.1939,-13.15383"
       id="path3907"
       inkscape:connector-curvature="0" />
    <g
       id="g6531"
       transform="matrix(0.91738654,-0.3979974,0.3979974,0.91738654,-150.21642,-91.899511)">
      <path
         inkscape:connector-curvature="0"
         id="path3913"
         d="m 250,350 -60,0"
         style="fill:none;stroke:#000000;stroke-width:1px;stroke-linecap:butt;stroke-linejoin:miter;stroke-opacity:1;marker-start:url(#DistanceStart);marker-end:url(#DistanceEnd)" />
      <text
         sodipodi:linespacing="125%"
         id="text3909"
         y="363.33789"
         x="213.19531"
         style="font-size:20px;font-style:normal;font-variant:normal;font-weight:normal;font-stretch:normal;line-height:125%;letter-spacing:0px;word-spacing:0px;fill:#000000;fill-opacity:1;stroke:none;font-family:Palatino Linotype;-inkscape-font-specification:Palatino Linotype"
         xml:space="preserve"><tspan
           style="font-size:20px;font-style:italic;font-family:Times New Roman;-inkscape-font-specification:Times New Roman"
           y="363.33789"
           x="213.19531"
           id="tspan3911"
           sodipodi:role="line">r</tspan></text>
    </g>
    <g
       id="g5574"
       transform="matrix(0.91738654,-0.3979974,0.3979974,0.91738654,-157.38037,-108.41247)">
      <path
         inkscape:connector-curvature="0"
         id="path3915"
         d="m 250,345 45,0"
         style="fill:none;stroke:#000000;stroke-width:1px;stroke-linecap:butt;stroke-linejoin:miter;stroke-opacity:1;marker-start:url(#DistanceStart);marker-end:url(#DistanceEnd)" />
      <text
         sodipodi:linespacing="125%"
         id="text3909-4"
         y="364.76584"
         x="255.85449"
         style="font-size:32px;font-style:normal;font-variant:normal;font-weight:normal;font-stretch:normal;line-height:125%;letter-spacing:0px;word-spacing:0px;fill:#000000;fill-opacity:1;stroke:none;font-family:Palatino Linotype;-inkscape-font-specification:Palatino Linotype"
         xml:space="preserve"><tspan
           style="font-size:20px;font-style:italic;font-family:Times New Roman;-inkscape-font-specification:Times New Roman"
           y="364.76584"
           x="255.85449"
           id="tspan3911-8"
           sodipodi:role="line">3<tspan
   id="tspan3940"
   style="font-style:normal"><tspan
   id="tspan3942"
   style="font-style:italic">r</tspan>/4</tspan></tspan></text>
    </g>
    <g
       id="g4618"
       transform="matrix(0.91738654,-0.3979974,0.3979974,0.91738654,-42.408681,-31.845435)">
      <path
         inkscape:connector-curvature="0"
         id="path3948"
         d="m 295,414 -75,0"
         style="fill:none;stroke:#000000;stroke-width:1px;stroke-linecap:butt;stroke-linejoin:miter;stroke-opacity:1;marker-start:url(#DistanceStart);marker-end:url(#DistanceEnd)" />
      <text
         sodipodi:linespacing="125%"
         id="text3909-8"
         y="432.38672"
         x="240.70801"
         style="font-size:20px;font-style:normal;font-variant:normal;font-weight:normal;font-stretch:normal;line-height:125%;letter-spacing:0px;word-spacing:0px;fill:#000000;fill-opacity:1;stroke:none;font-family:Palatino Linotype;-inkscape-font-specification:Palatino Linotype"
         xml:space="preserve"><tspan
           style="font-size:20px;font-style:normal;font-family:Times New Roman;-inkscape-font-specification:Times New Roman"
           y="432.38672"
           x="240.70801"
           id="tspan3911-2"
           sodipodi:role="line">5<tspan
   id="tspan3971"
   style="font-style:italic">r</tspan>/4</tspan></text>
    </g>
    <path
       style="fill:none;stroke:#000000;stroke-width:1px;stroke-linecap:butt;stroke-linejoin:miter;stroke-opacity:1;marker-start:url(#DistanceStart);marker-end:url(#DistanceEnd)"
       d="m 252.59731,283.82126 27.5216,-11.93992"
       id="path6580"
       inkscape:connector-curvature="0" />
    <text
       xml:space="preserve"
       style="font-size:32px;font-style:normal;font-variant:normal;font-weight:normal;font-stretch:normal;line-height:125%;letter-spacing:0px;word-spacing:0px;fill:#000000;fill-opacity:1;stroke:none;font-family:Palatino Linotype;-inkscape-font-specification:Palatino Linotype"
       x="122.31905"
       y="383.29361"
       id="text6582"
       sodipodi:linespacing="125%"
       transform="matrix(0.91738654,-0.3979974,0.3979974,0.91738654,0,0)"><tspan
         sodipodi:role="line"
         id="tspan6584"
         x="122.31905"
         y="383.29361"
         style="font-size:20px;font-family:Times New Roman;-inkscape-font-specification:Times New Roman"><tspan
   style="font-style:italic"
   id="tspan6586">r</tspan>/2</tspan></text>
    <path
       sodipodi:type="arc"
       style="fill:none;stroke:#000000;stroke-width:1;stroke-linecap:butt;stroke-linejoin:miter;stroke-miterlimit:4;stroke-opacity:1;stroke-dasharray:none;stroke-dashoffset:0"
       id="path6986"
       sodipodi:cx="250"
       sodipodi:cy="200"
       sodipodi:rx="150"
       sodipodi:ry="150"
       d="M 189.39767,62.787182 A 150,150 0 0 1 247.20454,50.026051"
       sodipodi:start="4.2964866"
       sodipodi:end="4.6937515"
       sodipodi:open="true" />
    <text
       xml:space="preserve"
       style="font-size:32px;font-style:normal;font-variant:normal;font-weight:normal;font-stretch:normal;line-height:125%;letter-spacing:0px;word-spacing:0px;fill:#000000;fill-opacity:1;stroke:none;font-family:Palatino Linotype;-inkscape-font-specification:Palatino Linotype"
       x="178.14069"
       y="91.24588"
       id="text6988"
       sodipodi:linespacing="125%"
       transform="matrix(0.97757429,-0.21059083,0.21059083,0.97757429,0,0)"><tspan
         sodipodi:role="line"
         id="tspan6990"
         x="178.14069"
         y="91.24588"
         style="font-size:20px;font-family:Times New Roman;-inkscape-font-specification:Times New Roman">23.44°</tspan></text>
    <path
       sodipodi:type="arc"
       style="fill:none;stroke:#000000;stroke-width:1;stroke-linecap:butt;stroke-linejoin:miter;stroke-miterlimit:4;stroke-opacity:1;stroke-dasharray:none;stroke-dashoffset:0;opacity:0.333"
       id="path3005-7-7"
       sodipodi:cx="300"
       sodipodi:cy="200"
       sodipodi:rx="120"
       sodipodi:ry="120"
       d="M 301.71972,319.98768 A 120,120 0 0 1 274.45834,82.749739"
       sodipodi:start="1.5564648"
       sodipodi:end="4.497901"
       transform="matrix(0.91738654,-0.3979974,0.3979974,0.91738654,-64.879958,124.41292)"
       sodipodi:open="true" />
    <path
       sodipodi:type="arc"
       style="fill:none;stroke:#000000;stroke-width:1;stroke-linecap:butt;stroke-linejoin:miter;stroke-miterlimit:4;stroke-opacity:1;stroke-dasharray:none;stroke-dashoffset:0;opacity:0.333"
       id="path3847-4"
       sodipodi:cx="190"
       sodipodi:cy="200"
       sodipodi:rx="35"
       sodipodi:ry="35"
       d="m 184.54949,234.57299 a 35,35 0 1 1 0.27022,0.0415"
       sodipodi:start="1.7271616"
       sodipodi:end="8.0025356"
       transform="matrix(0.91738654,-0.3979974,0.3979974,0.91738654,-59.999697,117.76238)"
       sodipodi:open="true" />
    <path
       style="fill:none;stroke:#000000;stroke-width:1px;stroke-linecap:butt;stroke-linejoin:miter;stroke-opacity:1"
       d="m 188.23408,222.09799 13.15384,5.19389"
       id="path3905-4"
       inkscape:connector-curvature="0" />
    <path
       style="fill:none;stroke:#000000;stroke-width:1px;stroke-linecap:butt;stroke-linejoin:miter;stroke-opacity:1"
       d="m 192.21405,231.27185 5.1939,-13.15383"
       id="path3907-8"
       inkscape:connector-curvature="0" />
    <path
       style="fill:none;stroke:#000000;stroke-width:1px;stroke-linecap:butt;stroke-linejoin:miter;stroke-opacity:1"
       d="m 242.09737,198.02683 13.15384,5.19389"
       id="path3905-8"
       inkscape:connector-curvature="0" />
    <path
       style="fill:none;stroke:#000000;stroke-width:1px;stroke-linecap:butt;stroke-linejoin:miter;stroke-opacity:1"
       d="m 246.07734,207.20069 5.1939,-13.15383"
       id="path3907-2"
       inkscape:connector-curvature="0" />
    <path
       sodipodi:type="arc"
       style="opacity:0.333;fill:none;stroke:#000000;stroke-width:1;stroke-linecap:butt;stroke-linejoin:miter;stroke-miterlimit:4;stroke-opacity:1;stroke-dasharray:none;stroke-dashoffset:0"
       id="path3976"
       sodipodi:cx="150.46297"
       sodipodi:cy="274.12143"
       sodipodi:rx="242.12962"
       sodipodi:ry="243.05554"
       d="M 274.46131,65.356997 A 242.12962,243.05554 0 0 1 383.58698,339.79294"
       sodipodi:start="5.250035"
       sodipodi:end="6.5567771"
       transform="translate(-96.296296,16.222222)"
       sodipodi:open="true" />
    <path
       style="opacity:0.33000004;fill:#000000;fill-opacity:1;fill-rule:evenodd;stroke:#000000;stroke-width:0.39840639;stroke-linecap:butt;stroke-linejoin:miter;stroke-miterlimit:4;stroke-opacity:0.12941176;stroke-dasharray:none;stroke-dashoffset:0"
       d="m 208.28652,180.23056 c -3.34168,-7.71303 -6.07369,-14.22127 -6.07113,-14.46276 0.008,-0.77102 5.51158,-6.83291 8.4863,-9.34748 3.8722,-3.27322 11.64945,-8.34093 12.80056,-8.34093 0.10913,0 -0.35129,1.21016 -1.02314,2.68924 -5.23895,11.53349 -7.11775,20.33863 -7.24714,33.96414 -0.0431,4.53774 -0.25356,8.46823 -0.47361,8.8444 -0.31243,0.53412 -1.67888,-2.28385 -6.47184,-13.34661 l 0,0 z"
       id="path3984"
       inkscape:connector-curvature="0" />
    <path
       style="opacity:0.33000004;fill:#000000;fill-opacity:1;fill-rule:evenodd;stroke:#000000;stroke-width:0.39840639;stroke-linecap:butt;stroke-linejoin:miter;stroke-miterlimit:4;stroke-opacity:0.12941176;stroke-dasharray:none;stroke-dashoffset:0"
       d="m 209.39136,193.83596 c -2.08168,-1.05932 -4.85999,-2.198 -6.17404,-2.53038 -3.20618,-0.811 -9.2271,-1.51997 -10.77502,-1.26877 l -1.25123,0.20304 0.68095,-2.85817 c 1.40568,-5.90004 5.15953,-14.59686 8.06358,-18.68146 l 1.30604,-1.83698 6.13325,14.21365 c 3.37328,7.81751 6.20361,14.34811 6.2896,14.51246 0.25937,0.49566 -0.32365,0.25642 -4.27313,-1.75339 z"
       id="path3986"
       inkscape:connector-curvature="0" />
    <path
       style="opacity:0.33000004;fill:#000000;fill-opacity:1;fill-rule:evenodd;stroke:#000000;stroke-width:0.39840639;stroke-linecap:butt;stroke-linejoin:miter;stroke-miterlimit:4;stroke-opacity:0.12941176;stroke-dasharray:none;stroke-dashoffset:0"
       d="m 190.41963,196.43831 c 0.39268,-5.58641 0.30398,-5.49587 5.0631,-5.16809 5.16064,0.35543 9.30815,1.45891 13.70943,3.6475 4.83528,2.4044 5.03682,2.57914 4.7321,4.10275 l -0.25003,1.25015 -11.762,0 -11.76199,0 0.26939,-3.83231 z"
       id="path3988"
       inkscape:connector-curvature="0" />
    <path
       style="opacity:0.33000004;fill:#000000;fill-opacity:1;fill-rule:evenodd;stroke:#000000;stroke-width:0.39840639;stroke-linecap:butt;stroke-linejoin:miter;stroke-miterlimit:4;stroke-opacity:0.12941176;stroke-dasharray:none;stroke-dashoffset:0"
       d="m 193.56993,220.88815 c -1.84951,-5.2689 -3.28301,-12.62054 -3.29512,-16.89891 l -0.007,-2.45668 11.65339,0.21917 c 6.40936,0.12054 11.71671,0.27344 11.79412,0.33977 0.0774,0.0663 0.29631,1.50792 0.48646,3.20352 0.19016,1.69561 0.73647,4.39913 1.21404,6.00782 0.47757,1.6087 0.79651,2.99001 0.70876,3.06959 -0.12053,0.10931 -16.39865,7.23348 -19.39561,8.48856 -0.34748,0.14552 -0.24589,-0.45848 0.31754,-1.88791 0.79235,-2.01022 0.81787,-3.17258 0.0697,-3.17258 -0.19138,0 -0.84035,1.25498 -1.44214,2.78885 -0.60179,1.53386 -1.12474,2.78884 -1.16212,2.78884 -0.0374,0 -0.46129,-1.12052 -0.94202,-2.49004 l 0,0 z"
       id="path3990"
       inkscape:connector-curvature="0" />
    <path
       style="opacity:0.33000004;fill:#000000;fill-opacity:1;fill-rule:evenodd;stroke:#000000;stroke-width:0.39840639;stroke-linecap:butt;stroke-linejoin:miter;stroke-miterlimit:4;stroke-opacity:0.12941176;stroke-dasharray:none;stroke-dashoffset:0"
       d="m 214.33164,248.93389 c -5.14554,-3.61357 -11.39925,-10.37569 -15.1599,-16.39235 -1.65379,-2.6459 -3.84791,-6.77291 -3.6008,-6.77291 0.0755,0 1.26628,0.45877 2.64623,1.0195 2.37651,0.96566 3.60447,1.04633 3.60447,0.2368 0,-0.19929 -1.07951,-0.76605 -2.39891,-1.25947 -1.31939,-0.49342 -2.47121,-1.01413 -2.5596,-1.15714 -0.12468,-0.20174 16.37469,-7.54755 19.33652,-8.60897 0.4695,-0.16825 1.12829,0.62675 2.55064,3.07799 1.29294,2.22824 3.13992,4.53781 5.66967,7.0897 l 3.75202,3.78486 -0.86396,3.58565 c -1.4717,6.1079 -4.71622,12.057 -8.64153,15.84496 l -1.55681,1.50232 -2.77804,-1.95094 z"
       id="path3992"
       inkscape:connector-curvature="0" />
    <path
       style="opacity:0.33000004;fill:#000000;fill-opacity:1;fill-rule:evenodd;stroke:#000000;stroke-width:0.39840639;stroke-linecap:butt;stroke-linejoin:miter;stroke-miterlimit:4;stroke-opacity:0.12941176;stroke-dasharray:none;stroke-dashoffset:0"
       d="m 239.86945,259.77085 c -8.23685,-1.73973 -13.1095,-3.44339 -18.84533,-6.58901 l -2.90908,-1.59538 1.932,-2.05234 c 3.81197,-4.04941 6.78729,-9.48918 8.28421,-15.14602 l 0.83002,-3.13663 5.32667,12.29842 c 2.92967,6.76413 5.74013,13.23966 6.24548,14.39005 0.93292,2.12375 0.89572,2.20258 -0.86397,1.83091 z"
       id="path3994"
       inkscape:connector-curvature="0" />
    <path
       style="opacity:0.33000004;fill:#000000;fill-opacity:1;fill-rule:evenodd;stroke:#000000;stroke-width:0.39840639;stroke-linecap:butt;stroke-linejoin:miter;stroke-miterlimit:4;stroke-opacity:0.12941176;stroke-dasharray:none;stroke-dashoffset:0"
       d="m 242.97588,259.93198 c -0.71775,-0.94665 -12.18187,-27.81036 -11.96195,-28.03027 0.42239,-0.4224 2.51061,1.23638 7.18178,5.70484 2.58542,2.47322 5.76769,5.24919 7.07171,6.16881 l 2.37095,1.67204 0,7.49129 0,7.49129 -2.14245,0 c -1.24698,0 -2.30027,-0.20815 -2.52004,-0.498 z"
       id="path3996"
       inkscape:connector-curvature="0" />
    <path
       style="opacity:0.33000004;fill:#000000;fill-opacity:1;fill-rule:evenodd;stroke:#000000;stroke-width:0.39840639;stroke-linecap:butt;stroke-linejoin:miter;stroke-miterlimit:4;stroke-opacity:0.12941176;stroke-dasharray:none;stroke-dashoffset:0"
       d="m 249.232,253.65707 c 0,-3.72509 0.0755,-6.7729 0.16778,-6.7729 0.0923,0 1.661,0.85639 3.48605,1.90309 4.52772,2.59673 9.33064,4.74839 14.02947,6.28507 4.53755,1.48393 4.52928,1.50609 -1.16377,3.1189 -4.81132,1.36303 -10.12924,2.23594 -13.63109,2.23748 l -2.88844,10e-4 0,-6.77291 z"
       id="path3998"
       inkscape:connector-curvature="0" />
    <path
       style="opacity:0.33000004;fill:#000000;fill-opacity:1;fill-rule:evenodd;stroke:#000000;stroke-width:0.21367522;stroke-linecap:butt;stroke-linejoin:miter;stroke-miterlimit:4;stroke-opacity:0.12941176;stroke-dasharray:none;stroke-dashoffset:0"
       d="m 217.09647,212.91274 c -0.97013,-2.59579 -1.72666,-6.19545 -1.95679,-9.31055 l -0.14716,-1.99218 0.70863,0.0691 0.70864,0.0691 2.29506,5.33116 2.29507,5.33115 -1.62168,0.70517 c -0.89193,0.38785 -1.69384,0.70517 -1.78203,0.70517 -0.0882,0 -0.31307,-0.40865 -0.49974,-0.90812 z"
       id="path4000"
       inkscape:connector-curvature="0" />
    <path
       style="opacity:0.33000004;fill:#000000;fill-opacity:1;fill-rule:evenodd;stroke:#000000;stroke-width:0.21367522;stroke-linecap:butt;stroke-linejoin:miter;stroke-miterlimit:4;stroke-opacity:0.12941176;stroke-dasharray:none;stroke-dashoffset:0"
       d="m 224.85522,225.19822 c -1.33833,-1.38135 -3.02205,-3.37654 -3.74158,-4.43376 -1.18556,-1.74196 -3.07636,-5.19392 -3.06922,-5.60338 0.005,-0.27554 3.25847,-1.58314 3.45364,-1.38797 0.14716,0.14716 5.26385,11.70315 5.95791,13.45587 0.10471,0.26443 0.10988,0.48077 0.0115,0.48077 -0.0984,0 -1.2739,-1.13019 -2.61223,-2.51153 z"
       id="path4002"
       inkscape:connector-curvature="0" />
    <path
       style="opacity:0.33000004;fill:#000000;fill-opacity:1;fill-rule:evenodd;stroke:#000000;stroke-width:0.12254902;stroke-linecap:butt;stroke-linejoin:miter;stroke-miterlimit:4;stroke-opacity:0.12941176;stroke-dasharray:none;stroke-dashoffset:0"
       d="m 216.19083,197.97367 c -0.21754,-0.17052 -0.50792,-0.56412 -0.64528,-0.87467 l -0.24977,-0.56462 0.25779,-1.42008 c 0.14178,-0.78104 0.27637,-1.43891 0.29908,-1.46194 0.0227,-0.023 0.0772,0.22514 0.12109,0.55147 0.0439,0.32634 0.21618,1.32971 0.38286,2.22971 0.16668,0.9 0.28656,1.68447 0.2664,1.74327 -0.0202,0.0588 -0.21463,-0.0326 -0.43217,-0.20314 z"
       id="path4004"
       inkscape:connector-curvature="0" />
    <path
       style="opacity:0.33000004;fill:#000000;fill-opacity:1;fill-rule:evenodd;stroke:#000000;stroke-width:0.12254902;stroke-linecap:butt;stroke-linejoin:miter;stroke-miterlimit:4;stroke-opacity:0.12941176;stroke-dasharray:none;stroke-dashoffset:0"
       d="m 230.68526,230.13226 c -1.30152,-0.86663 -1.47063,-1.12076 -1.33071,-1.99977 l 0.10054,-0.63163 1.04112,1.39517 c 0.57262,0.76734 1.14223,1.5239 1.26581,1.68124 0.34885,0.44418 0.111,0.34588 -1.07676,-0.44501 z"
       id="path4006"
       inkscape:connector-curvature="0" />
  </g>
</svg>
