<?xml version="1.0" encoding="utf-8"?>
<!-- Generator: Adobe Illustrator 13.0.0, SVG Export Plug-In  -->
<!DOCTYPE svg [
	<!ENTITY ns_flows "http://ns.adobe.com/Flows/1.0/">
]>
<svg version="1.2" baseProfile="tiny"
	 xmlns="http://www.w3.org/2000/svg" xmlns:xlink="http://www.w3.org/1999/xlink" xmlns:a="http://ns.adobe.com/AdobeSVGViewerExtensions/3.0/"
	 x="0px" y="0px" width="176px" height="176px" viewBox="-0.6 -0.6 176 176" xml:space="preserve">
<defs>
</defs>
<path d="M0,87.7C0,39.2,39.2,0,87.7,0l0,0v15v15c-16,0-30.3,6.4-40.8,16.9l0,0C36.4,57.4,30,71.7,30,87.7l0,0
	c0,16,6.4,30.3,16.9,40.8l0,0c10.5,10.5,24.8,16.9,40.8,16.9l0,0c16,0,30.3-6.4,40.8-16.9l0,0c10.5-10.5,16.9-24.8,16.9-40.8l0,0
	c0-16-6.4-30.3-16.9-40.8l0,0C118,36.4,103.6,30,87.7,30l0,0V15V0c48.4,0,87.7,39.2,87.7,87.7l0,0c0,48.4-39.2,87.7-87.7,87.7l0,0
	C39.2,175.3,0,136.1,0,87.7L0,87.7z"/>
<path d="M72.7,115.4v-55c0-8.3,6.7-15,15-15l0,0c8.3,0,15,6.7,15,15l0,0v55c0,8.3-6.7,15-15,15l0,0
	C79.4,130.4,72.7,123.6,72.7,115.4L72.7,115.4z"/>
</svg>
