<?xml version="1.0" encoding="UTF-8" standalone="no"?>
<!-- Generator: Adobe Illustrator 13.0.0, SVG Export Plug-In  -->

<svg
   xmlns:dc="http://purl.org/dc/elements/1.1/"
   xmlns:cc="http://creativecommons.org/ns#"
   xmlns:rdf="http://www.w3.org/1999/02/22-rdf-syntax-ns#"
   xmlns:svg="http://www.w3.org/2000/svg"
   xmlns="http://www.w3.org/2000/svg"
   xmlns:sodipodi="http://sodipodi.sourceforge.net/DTD/sodipodi-0.dtd"
   xmlns:inkscape="http://www.inkscape.org/namespaces/inkscape"
   version="1.2"
   x="0px"
   y="0px"
   width="176px"
   height="176px"
   viewBox="-0.6 -0.6 176 176"
   xml:space="preserve"
   id="svg2"
   inkscape:version="0.48.2 r9819"
   sodipodi:docname="IEC5008_Off_Symbol.svg"
   inkscape:export-filename="C:\Documents and Settings\rjl\My Documents\thesis\github\Unicode\176px-IEC5008_Off_Symbol.svg.png"
   inkscape:export-xdpi="90.307869"
   inkscape:export-ydpi="90.307869"><metadata
   id="metadata12"><rdf:RDF><cc:Work
       rdf:about=""><dc:format>image/svg+xml</dc:format><dc:type
         rdf:resource="http://purl.org/dc/dcmitype/StillImage" /><dc:title></dc:title></cc:Work></rdf:RDF></metadata><sodipodi:namedview
   pagecolor="#ffffff"
   bordercolor="#666666"
   borderopacity="1"
   objecttolerance="10"
   gridtolerance="10"
   guidetolerance="10"
   inkscape:pageopacity="0"
   inkscape:pageshadow="2"
   inkscape:window-width="1024"
   inkscape:window-height="719"
   id="namedview10"
   showgrid="false"
   inkscape:zoom="1.3409091"
   inkscape:cx="88"
   inkscape:cy="88"
   inkscape:window-x="-4"
   inkscape:window-y="252"
   inkscape:window-maximized="1"
   inkscape:current-layer="svg2" />
<defs
   id="defs4">
</defs>
<path
   d="M0,87.7C0,39.2,39.2,0,87.7,0l0,0v15v15c-16,0-30.3,6.4-40.8,16.9l0,0C36.4,57.4,30,71.7,30,87.7l0,0  c0,16,6.4,30.3,16.9,40.8l0,0c10.5,10.5,24.8,16.9,40.8,16.9l0,0c16,0,30.3-6.4,40.8-16.9l0,0c10.5-10.5,16.9-24.8,16.9-40.8l0,0  c0-16-6.4-30.3-16.9-40.8l0,0C118,36.4,103.6,30,87.7,30l0,0V15V0c48.4,0,87.7,39.2,87.7,87.7l0,0c0,48.4-39.2,87.7-87.7,87.7l0,0  C39.2,175.3,0,136.1,0,87.7L0,87.7z"
   id="path6" />

</svg>